<mxfile host="app.diagrams.net" agent="Mozilla/5.0 (X11; Linux x86_64) AppleWebKit/537.36 (KHTML, like Gecko) Chrome/133.0.0.0 Safari/537.36" version="26.0.16" pages="3">
  <diagram name="Context Level" id="CythzTBHb3bdpcEW1Qi6">
    <mxGraphModel dx="1867" dy="1260" grid="1" gridSize="10" guides="1" tooltips="1" connect="1" arrows="1" fold="1" page="0" pageScale="1" pageWidth="900" pageHeight="1600" math="0" shadow="0">
      <root>
        <mxCell id="0" />
        <mxCell id="1" parent="0" />
        <mxCell id="mqqFqxeNAZNyGEwjC0Mq-32" style="edgeStyle=orthogonalEdgeStyle;rounded=0;orthogonalLoop=1;jettySize=auto;html=1;exitX=1;exitY=0.75;exitDx=0;exitDy=0;entryX=0;entryY=0.75;entryDx=0;entryDy=0;strokeWidth=3;" edge="1" parent="1" source="mqqFqxeNAZNyGEwjC0Mq-13" target="mqqFqxeNAZNyGEwjC0Mq-17">
          <mxGeometry relative="1" as="geometry" />
        </mxCell>
        <mxCell id="mqqFqxeNAZNyGEwjC0Mq-36" style="edgeStyle=orthogonalEdgeStyle;rounded=0;orthogonalLoop=1;jettySize=auto;html=1;exitX=0.75;exitY=1;exitDx=0;exitDy=0;entryX=0.75;entryY=0;entryDx=0;entryDy=0;strokeWidth=3;" edge="1" parent="1" source="mqqFqxeNAZNyGEwjC0Mq-13" target="mqqFqxeNAZNyGEwjC0Mq-24">
          <mxGeometry relative="1" as="geometry" />
        </mxCell>
        <mxCell id="mqqFqxeNAZNyGEwjC0Mq-41" style="edgeStyle=orthogonalEdgeStyle;rounded=0;orthogonalLoop=1;jettySize=auto;html=1;exitX=0;exitY=0.75;exitDx=0;exitDy=0;strokeWidth=3;" edge="1" parent="1" source="mqqFqxeNAZNyGEwjC0Mq-13">
          <mxGeometry relative="1" as="geometry">
            <mxPoint x="190" y="369.47058823529414" as="targetPoint" />
          </mxGeometry>
        </mxCell>
        <mxCell id="yGpVhsDJsTR9-kTOj1M8-5" style="edgeStyle=orthogonalEdgeStyle;rounded=0;orthogonalLoop=1;jettySize=auto;html=1;exitX=0.75;exitY=0;exitDx=0;exitDy=0;entryX=0.75;entryY=1;entryDx=0;entryDy=0;strokeWidth=3;" edge="1" parent="1" source="mqqFqxeNAZNyGEwjC0Mq-13" target="yGpVhsDJsTR9-kTOj1M8-2">
          <mxGeometry relative="1" as="geometry" />
        </mxCell>
        <mxCell id="mqqFqxeNAZNyGEwjC0Mq-13" value="" style="rounded=1;whiteSpace=wrap;html=3;strokeColor=light-dark(#000000,#FFFFFF);strokeWidth=3;" vertex="1" parent="1">
          <mxGeometry x="490" y="287" width="190" height="110" as="geometry" />
        </mxCell>
        <mxCell id="mqqFqxeNAZNyGEwjC0Mq-14" value="" style="endArrow=none;html=1;rounded=0;entryX=1;entryY=0.25;entryDx=0;entryDy=0;exitX=0;exitY=0.25;exitDx=0;exitDy=0;strokeWidth=3;" edge="1" parent="1">
          <mxGeometry width="50" height="50" relative="1" as="geometry">
            <mxPoint x="490" y="326.5" as="sourcePoint" />
            <mxPoint x="680" y="326.5" as="targetPoint" />
          </mxGeometry>
        </mxCell>
        <mxCell id="mqqFqxeNAZNyGEwjC0Mq-15" value="&lt;font style=&quot;font-size: 18px;&quot;&gt;0.0&lt;/font&gt;" style="text;html=1;align=center;verticalAlign=middle;resizable=0;points=[];autosize=1;strokeColor=none;fillColor=none;" vertex="1" parent="1">
          <mxGeometry x="491" y="289" width="50" height="40" as="geometry" />
        </mxCell>
        <mxCell id="mqqFqxeNAZNyGEwjC0Mq-16" value="&lt;div&gt;&lt;span style=&quot;font-size: 18px;&quot;&gt;Multi-Vendor Vehicle&amp;nbsp;&lt;/span&gt;&lt;/div&gt;&lt;div&gt;&lt;span style=&quot;font-size: 18px;&quot;&gt;Rental System&lt;/span&gt;&lt;/div&gt;" style="text;html=1;align=center;verticalAlign=middle;resizable=0;points=[];autosize=1;strokeColor=none;fillColor=none;" vertex="1" parent="1">
          <mxGeometry x="489" y="333" width="190" height="60" as="geometry" />
        </mxCell>
        <mxCell id="mqqFqxeNAZNyGEwjC0Mq-39" style="edgeStyle=orthogonalEdgeStyle;rounded=0;orthogonalLoop=1;jettySize=auto;html=1;exitX=1;exitY=0.25;exitDx=0;exitDy=0;entryX=0;entryY=0.25;entryDx=0;entryDy=0;strokeWidth=3;" edge="1" parent="1" source="mqqFqxeNAZNyGEwjC0Mq-19" target="mqqFqxeNAZNyGEwjC0Mq-13">
          <mxGeometry relative="1" as="geometry" />
        </mxCell>
        <mxCell id="mqqFqxeNAZNyGEwjC0Mq-19" value="" style="rounded=0;whiteSpace=wrap;html=3;strokeColor=light-dark(#000000,#FFFFFF);strokeWidth=3;" vertex="1" parent="1">
          <mxGeometry x="-1" y="287" width="190" height="110" as="geometry" />
        </mxCell>
        <mxCell id="mqqFqxeNAZNyGEwjC0Mq-20" value="" style="group" vertex="1" connectable="0" parent="1">
          <mxGeometry x="966" y="286" width="190" height="110" as="geometry" />
        </mxCell>
        <mxCell id="mqqFqxeNAZNyGEwjC0Mq-17" value="" style="rounded=0;whiteSpace=wrap;html=3;strokeColor=light-dark(#000000,#FFFFFF);strokeWidth=3;" vertex="1" parent="mqqFqxeNAZNyGEwjC0Mq-20">
          <mxGeometry width="190" height="110" as="geometry" />
        </mxCell>
        <mxCell id="mqqFqxeNAZNyGEwjC0Mq-18" value="&lt;div&gt;&lt;span style=&quot;font-size: 18px;&quot;&gt;Vehicle Owner(s)&lt;/span&gt;&lt;/div&gt;" style="text;html=1;align=center;verticalAlign=middle;resizable=0;points=[];autosize=1;strokeColor=none;fillColor=none;" vertex="1" parent="mqqFqxeNAZNyGEwjC0Mq-20">
          <mxGeometry x="15" y="36" width="160" height="40" as="geometry" />
        </mxCell>
        <mxCell id="mqqFqxeNAZNyGEwjC0Mq-23" value="" style="group" vertex="1" connectable="0" parent="1">
          <mxGeometry x="491" y="600" width="190" height="110" as="geometry" />
        </mxCell>
        <mxCell id="mqqFqxeNAZNyGEwjC0Mq-24" value="" style="rounded=0;whiteSpace=wrap;html=3;strokeColor=light-dark(#000000,#FFFFFF);strokeWidth=3;" vertex="1" parent="mqqFqxeNAZNyGEwjC0Mq-23">
          <mxGeometry width="190" height="110" as="geometry" />
        </mxCell>
        <mxCell id="mqqFqxeNAZNyGEwjC0Mq-25" value="&lt;span style=&quot;font-size: 18px;&quot;&gt;User&lt;/span&gt;" style="text;html=1;align=center;verticalAlign=middle;resizable=0;points=[];autosize=1;strokeColor=none;fillColor=none;" vertex="1" parent="mqqFqxeNAZNyGEwjC0Mq-23">
          <mxGeometry x="65" y="36" width="60" height="40" as="geometry" />
        </mxCell>
        <mxCell id="mqqFqxeNAZNyGEwjC0Mq-26" value="&lt;div&gt;&lt;span style=&quot;font-size: 18px;&quot;&gt;Admin&lt;/span&gt;&lt;/div&gt;" style="text;html=1;align=center;verticalAlign=middle;resizable=0;points=[];autosize=1;strokeColor=none;fillColor=none;" vertex="1" parent="1">
          <mxGeometry x="55" y="321" width="70" height="40" as="geometry" />
        </mxCell>
        <mxCell id="mqqFqxeNAZNyGEwjC0Mq-29" style="edgeStyle=orthogonalEdgeStyle;rounded=0;orthogonalLoop=1;jettySize=auto;html=1;exitX=0;exitY=0.25;exitDx=0;exitDy=0;entryX=1;entryY=0.25;entryDx=0;entryDy=0;strokeWidth=3;" edge="1" parent="1" source="mqqFqxeNAZNyGEwjC0Mq-17" target="mqqFqxeNAZNyGEwjC0Mq-13">
          <mxGeometry relative="1" as="geometry" />
        </mxCell>
        <mxCell id="mqqFqxeNAZNyGEwjC0Mq-31" value="&lt;div&gt;&lt;font face=&quot;Times New Roman&quot; style=&quot;font-size: 15px;&quot;&gt;Vehicle Registration Data/&lt;/font&gt;&lt;/div&gt;&lt;div&gt;&lt;font face=&quot;Times New Roman&quot; style=&quot;font-size: 15px;&quot;&gt;&lt;span style=&quot;background-color: transparent; color: light-dark(rgb(0, 0, 0), rgb(255, 255, 255));&quot;&gt;vehicle Update Infromation&lt;/span&gt;&lt;/font&gt;&lt;/div&gt;" style="text;html=1;align=center;verticalAlign=middle;resizable=0;points=[];autosize=1;strokeColor=none;fillColor=none;strokeWidth=1;" vertex="1" parent="1">
          <mxGeometry x="725" y="260" width="190" height="50" as="geometry" />
        </mxCell>
        <mxCell id="mqqFqxeNAZNyGEwjC0Mq-33" value="&lt;font face=&quot;Times New Roman&quot;&gt;&lt;span style=&quot;font-size: 15px;&quot;&gt;Listing Confirmation/Booking Requests&lt;/span&gt;&lt;/font&gt;" style="text;html=1;align=center;verticalAlign=middle;resizable=0;points=[];autosize=1;strokeColor=none;fillColor=none;strokeWidth=1;" vertex="1" parent="1">
          <mxGeometry x="691" y="366" width="260" height="30" as="geometry" />
        </mxCell>
        <mxCell id="mqqFqxeNAZNyGEwjC0Mq-34" style="edgeStyle=orthogonalEdgeStyle;rounded=0;orthogonalLoop=1;jettySize=auto;html=1;exitX=0.25;exitY=0;exitDx=0;exitDy=0;entryX=0.25;entryY=1;entryDx=0;entryDy=0;strokeWidth=3;" edge="1" parent="1" source="mqqFqxeNAZNyGEwjC0Mq-24" target="mqqFqxeNAZNyGEwjC0Mq-13">
          <mxGeometry relative="1" as="geometry" />
        </mxCell>
        <mxCell id="mqqFqxeNAZNyGEwjC0Mq-35" value="&lt;font face=&quot;Times New Roman&quot;&gt;&lt;span style=&quot;font-size: 15px;&quot;&gt;Registration &amp;amp; Booking Request Data/&lt;/span&gt;&lt;/font&gt;&lt;div&gt;&lt;font face=&quot;Times New Roman&quot;&gt;&lt;span style=&quot;font-size: 15px;&quot;&gt;Search Queries/Payment Data&lt;/span&gt;&lt;/font&gt;&lt;/div&gt;" style="text;html=1;align=center;verticalAlign=middle;resizable=0;points=[];autosize=1;strokeColor=none;fillColor=none;strokeWidth=1;" vertex="1" parent="1">
          <mxGeometry x="284" y="480" width="260" height="50" as="geometry" />
        </mxCell>
        <mxCell id="mqqFqxeNAZNyGEwjC0Mq-37" value="&lt;font face=&quot;Times New Roman&quot;&gt;&lt;span style=&quot;font-size: 15px;&quot;&gt;Registration Confirmation&lt;/span&gt;&lt;/font&gt;&lt;div&gt;&lt;font face=&quot;Times New Roman&quot;&gt;&lt;span style=&quot;font-size: 15px;&quot;&gt;Booking Confirmation/Invoice/Search Results&lt;/span&gt;&lt;/font&gt;&lt;/div&gt;" style="text;html=1;align=center;verticalAlign=middle;resizable=0;points=[];autosize=1;strokeColor=none;fillColor=none;strokeWidth=1;" vertex="1" parent="1">
          <mxGeometry x="627" y="480" width="300" height="50" as="geometry" />
        </mxCell>
        <mxCell id="mqqFqxeNAZNyGEwjC0Mq-40" value="&lt;font face=&quot;Times New Roman&quot;&gt;&lt;span style=&quot;font-size: 15px;&quot;&gt;Administrative Commands/&lt;/span&gt;&lt;/font&gt;&lt;div&gt;&lt;font face=&quot;Times New Roman&quot;&gt;&lt;span style=&quot;font-size: 15px;&quot;&gt;Approval Data&lt;/span&gt;&lt;/font&gt;&lt;/div&gt;" style="text;html=1;align=center;verticalAlign=middle;resizable=0;points=[];autosize=1;strokeColor=none;fillColor=none;strokeWidth=1;" vertex="1" parent="1">
          <mxGeometry x="235" y="267" width="190" height="50" as="geometry" />
        </mxCell>
        <mxCell id="mqqFqxeNAZNyGEwjC0Mq-42" value="&lt;div&gt;&lt;font face=&quot;Times New Roman&quot;&gt;&lt;span style=&quot;font-size: 15px;&quot;&gt;System Reports/&lt;/span&gt;&lt;/font&gt;&lt;span style=&quot;font-size: 15px; font-family: &amp;quot;Times New Roman&amp;quot;; background-color: transparent; color: light-dark(rgb(0, 0, 0), rgb(255, 255, 255));&quot;&gt;Status Information&lt;/span&gt;&lt;/div&gt;" style="text;html=1;align=center;verticalAlign=middle;resizable=0;points=[];autosize=1;strokeColor=none;fillColor=none;strokeWidth=1;" vertex="1" parent="1">
          <mxGeometry x="225" y="367" width="230" height="30" as="geometry" />
        </mxCell>
        <mxCell id="yGpVhsDJsTR9-kTOj1M8-1" value="" style="group;strokeWidth=3;" vertex="1" connectable="0" parent="1">
          <mxGeometry x="490" y="-40" width="190" height="110" as="geometry" />
        </mxCell>
        <mxCell id="yGpVhsDJsTR9-kTOj1M8-2" value="" style="rounded=0;whiteSpace=wrap;html=3;strokeColor=light-dark(#000000,#FFFFFF);strokeWidth=3;" vertex="1" parent="yGpVhsDJsTR9-kTOj1M8-1">
          <mxGeometry width="190" height="110" as="geometry" />
        </mxCell>
        <mxCell id="yGpVhsDJsTR9-kTOj1M8-3" value="&lt;span style=&quot;font-size: 18px;&quot;&gt;Khalti Payment&amp;nbsp;&lt;/span&gt;&lt;div&gt;&lt;span style=&quot;font-size: 18px;&quot;&gt;Gateway&lt;/span&gt;&lt;/div&gt;" style="text;html=1;align=center;verticalAlign=middle;resizable=0;points=[];autosize=1;strokeColor=none;fillColor=none;" vertex="1" parent="yGpVhsDJsTR9-kTOj1M8-1">
          <mxGeometry x="20" y="26" width="150" height="60" as="geometry" />
        </mxCell>
        <mxCell id="yGpVhsDJsTR9-kTOj1M8-4" style="edgeStyle=orthogonalEdgeStyle;rounded=0;orthogonalLoop=1;jettySize=auto;html=1;exitX=0.25;exitY=1;exitDx=0;exitDy=0;entryX=0.94;entryY=-0.058;entryDx=0;entryDy=0;entryPerimeter=0;strokeWidth=3;" edge="1" parent="1" source="yGpVhsDJsTR9-kTOj1M8-2" target="mqqFqxeNAZNyGEwjC0Mq-15">
          <mxGeometry relative="1" as="geometry">
            <mxPoint x="540" y="280" as="targetPoint" />
          </mxGeometry>
        </mxCell>
        <mxCell id="yGpVhsDJsTR9-kTOj1M8-7" value="&lt;font face=&quot;Times New Roman&quot;&gt;&lt;span style=&quot;font-size: 15px;&quot;&gt;Payment Request Data&lt;/span&gt;&lt;/font&gt;" style="text;html=1;align=center;verticalAlign=middle;resizable=0;points=[];autosize=1;strokeColor=none;fillColor=none;strokeWidth=1;" vertex="1" parent="1">
          <mxGeometry x="628" y="160" width="160" height="30" as="geometry" />
        </mxCell>
        <mxCell id="yGpVhsDJsTR9-kTOj1M8-8" value="&lt;div&gt;&lt;font face=&quot;Times New Roman&quot;&gt;&lt;span style=&quot;font-size: 15px;&quot;&gt;Payment Confirmation Data&lt;/span&gt;&lt;/font&gt;&lt;/div&gt;" style="text;html=1;align=center;verticalAlign=middle;resizable=0;points=[];autosize=1;strokeColor=none;fillColor=none;strokeWidth=1;" vertex="1" parent="1">
          <mxGeometry x="351" y="150" width="190" height="30" as="geometry" />
        </mxCell>
      </root>
    </mxGraphModel>
  </diagram>
  <diagram id="jqGGL0FiuZ9z60IMRnAN" name="Level 0">
    <mxGraphModel dx="1035" dy="1007" grid="1" gridSize="10" guides="1" tooltips="1" connect="1" arrows="1" fold="1" page="0" pageScale="1" pageWidth="900" pageHeight="1600" math="0" shadow="0">
      <root>
        <mxCell id="0" />
        <mxCell id="1" parent="0" />
        <mxCell id="CzCq_uoydx_rgcWmHXnd-1" value="" style="group" vertex="1" connectable="0" parent="1">
          <mxGeometry x="1005" y="479" width="190" height="110" as="geometry" />
        </mxCell>
        <mxCell id="CzCq_uoydx_rgcWmHXnd-2" value="" style="rounded=1;whiteSpace=wrap;html=3;strokeColor=light-dark(#000000,#FFFFFF);strokeWidth=3;" vertex="1" parent="CzCq_uoydx_rgcWmHXnd-1">
          <mxGeometry width="190" height="110" as="geometry" />
        </mxCell>
        <mxCell id="CzCq_uoydx_rgcWmHXnd-3" value="" style="endArrow=none;html=1;rounded=0;entryX=1;entryY=0.25;entryDx=0;entryDy=0;exitX=0;exitY=0.25;exitDx=0;exitDy=0;strokeWidth=3;" edge="1" parent="CzCq_uoydx_rgcWmHXnd-1">
          <mxGeometry width="50" height="50" relative="1" as="geometry">
            <mxPoint y="39.5" as="sourcePoint" />
            <mxPoint x="190" y="39.5" as="targetPoint" />
          </mxGeometry>
        </mxCell>
        <mxCell id="CzCq_uoydx_rgcWmHXnd-4" value="&lt;font style=&quot;font-size: 18px;&quot;&gt;1.1&lt;/font&gt;" style="text;html=1;align=center;verticalAlign=middle;resizable=0;points=[];autosize=1;strokeColor=none;fillColor=none;" vertex="1" parent="CzCq_uoydx_rgcWmHXnd-1">
          <mxGeometry x="1" y="2" width="50" height="40" as="geometry" />
        </mxCell>
        <mxCell id="CzCq_uoydx_rgcWmHXnd-5" value="&lt;font style=&quot;font-size: 18px;&quot;&gt;Manage Users&lt;/font&gt;" style="text;html=1;align=center;verticalAlign=middle;resizable=0;points=[];autosize=1;strokeColor=none;fillColor=none;" vertex="1" parent="CzCq_uoydx_rgcWmHXnd-1">
          <mxGeometry x="13" y="50" width="140" height="40" as="geometry" />
        </mxCell>
        <mxCell id="S0NYgSveu-UEB4fADILz-1" value="" style="group" vertex="1" connectable="0" parent="1">
          <mxGeometry x="960" y="63" width="190" height="110" as="geometry" />
        </mxCell>
        <mxCell id="S0NYgSveu-UEB4fADILz-2" value="" style="rounded=1;whiteSpace=wrap;html=3;strokeColor=light-dark(#000000,#FFFFFF);strokeWidth=3;" vertex="1" parent="S0NYgSveu-UEB4fADILz-1">
          <mxGeometry width="190" height="110" as="geometry" />
        </mxCell>
        <mxCell id="S0NYgSveu-UEB4fADILz-3" value="" style="endArrow=none;html=1;rounded=0;entryX=1;entryY=0.25;entryDx=0;entryDy=0;exitX=0;exitY=0.25;exitDx=0;exitDy=0;strokeWidth=3;" edge="1" parent="S0NYgSveu-UEB4fADILz-1">
          <mxGeometry width="50" height="50" relative="1" as="geometry">
            <mxPoint y="39.5" as="sourcePoint" />
            <mxPoint x="190" y="39.5" as="targetPoint" />
          </mxGeometry>
        </mxCell>
        <mxCell id="S0NYgSveu-UEB4fADILz-4" value="&lt;font style=&quot;font-size: 18px;&quot;&gt;1.2&lt;/font&gt;" style="text;html=1;align=center;verticalAlign=middle;resizable=0;points=[];autosize=1;strokeColor=none;fillColor=none;" vertex="1" parent="S0NYgSveu-UEB4fADILz-1">
          <mxGeometry x="1" y="2" width="50" height="40" as="geometry" />
        </mxCell>
        <mxCell id="S0NYgSveu-UEB4fADILz-5" value="&lt;font style=&quot;font-size: 18px;&quot;&gt;Manage Vehicles&lt;/font&gt;" style="text;html=1;align=center;verticalAlign=middle;resizable=0;points=[];autosize=1;strokeColor=none;fillColor=none;" vertex="1" parent="S0NYgSveu-UEB4fADILz-1">
          <mxGeometry x="9" y="50" width="160" height="40" as="geometry" />
        </mxCell>
        <mxCell id="S0NYgSveu-UEB4fADILz-6" value="" style="group" vertex="1" connectable="0" parent="1">
          <mxGeometry x="249" y="483" width="190" height="110" as="geometry" />
        </mxCell>
        <mxCell id="S0NYgSveu-UEB4fADILz-7" value="" style="rounded=1;whiteSpace=wrap;html=3;strokeColor=light-dark(#000000,#FFFFFF);strokeWidth=3;" vertex="1" parent="S0NYgSveu-UEB4fADILz-6">
          <mxGeometry width="190" height="110" as="geometry" />
        </mxCell>
        <mxCell id="S0NYgSveu-UEB4fADILz-8" value="" style="endArrow=none;html=1;rounded=0;entryX=1;entryY=0.25;entryDx=0;entryDy=0;exitX=0;exitY=0.25;exitDx=0;exitDy=0;strokeWidth=3;" edge="1" parent="S0NYgSveu-UEB4fADILz-6">
          <mxGeometry width="50" height="50" relative="1" as="geometry">
            <mxPoint y="39.5" as="sourcePoint" />
            <mxPoint x="190" y="39.5" as="targetPoint" />
          </mxGeometry>
        </mxCell>
        <mxCell id="S0NYgSveu-UEB4fADILz-9" value="&lt;font style=&quot;font-size: 18px;&quot;&gt;1.3&lt;/font&gt;" style="text;html=1;align=center;verticalAlign=middle;resizable=0;points=[];autosize=1;strokeColor=none;fillColor=none;" vertex="1" parent="S0NYgSveu-UEB4fADILz-6">
          <mxGeometry x="-4" y="2" width="50" height="40" as="geometry" />
        </mxCell>
        <mxCell id="S0NYgSveu-UEB4fADILz-10" value="&lt;font style=&quot;font-size: 18px;&quot;&gt;Manage Bookings&lt;/font&gt;" style="text;html=1;align=center;verticalAlign=middle;resizable=0;points=[];autosize=1;strokeColor=none;fillColor=none;" vertex="1" parent="S0NYgSveu-UEB4fADILz-6">
          <mxGeometry x="8" y="50" width="170" height="40" as="geometry" />
        </mxCell>
        <mxCell id="S0NYgSveu-UEB4fADILz-11" value="" style="group" vertex="1" connectable="0" parent="1">
          <mxGeometry x="434" y="84" width="190" height="110" as="geometry" />
        </mxCell>
        <mxCell id="S0NYgSveu-UEB4fADILz-12" value="" style="rounded=1;whiteSpace=wrap;html=3;strokeColor=light-dark(#000000,#FFFFFF);strokeWidth=3;" vertex="1" parent="S0NYgSveu-UEB4fADILz-11">
          <mxGeometry x="-2" width="190" height="110" as="geometry" />
        </mxCell>
        <mxCell id="S0NYgSveu-UEB4fADILz-13" value="" style="endArrow=none;html=1;rounded=0;entryX=1;entryY=0.25;entryDx=0;entryDy=0;exitX=0;exitY=0.25;exitDx=0;exitDy=0;strokeWidth=3;" edge="1" parent="S0NYgSveu-UEB4fADILz-11">
          <mxGeometry width="50" height="50" relative="1" as="geometry">
            <mxPoint y="39.5" as="sourcePoint" />
            <mxPoint x="190" y="39.5" as="targetPoint" />
          </mxGeometry>
        </mxCell>
        <mxCell id="S0NYgSveu-UEB4fADILz-14" value="&lt;font style=&quot;font-size: 18px;&quot;&gt;1.4&lt;/font&gt;" style="text;html=1;align=center;verticalAlign=middle;resizable=0;points=[];autosize=1;strokeColor=none;fillColor=none;" vertex="1" parent="S0NYgSveu-UEB4fADILz-11">
          <mxGeometry x="-4" width="50" height="40" as="geometry" />
        </mxCell>
        <mxCell id="S0NYgSveu-UEB4fADILz-15" value="&lt;font style=&quot;font-size: 18px;&quot;&gt;Process Payments&lt;/font&gt;" style="text;html=1;align=center;verticalAlign=middle;resizable=0;points=[];autosize=1;strokeColor=none;fillColor=none;" vertex="1" parent="S0NYgSveu-UEB4fADILz-11">
          <mxGeometry x="6" y="50" width="170" height="40" as="geometry" />
        </mxCell>
        <mxCell id="S0NYgSveu-UEB4fADILz-20" value="" style="group" vertex="1" connectable="0" parent="1">
          <mxGeometry x="990" y="730" width="270" height="110" as="geometry" />
        </mxCell>
        <mxCell id="S0NYgSveu-UEB4fADILz-16" value="" style="html=1;dashed=0;whiteSpace=wrap;shape=partialRectangle;right=0;strokeWidth=3;" vertex="1" parent="S0NYgSveu-UEB4fADILz-20">
          <mxGeometry width="190" height="50" as="geometry" />
        </mxCell>
        <mxCell id="S0NYgSveu-UEB4fADILz-18" value="&lt;font style=&quot;font-size: 18px;&quot;&gt;D1 – User Data&lt;/font&gt;" style="text;html=1;align=center;verticalAlign=middle;resizable=0;points=[];autosize=1;strokeColor=none;fillColor=none;container=1;" vertex="1" parent="S0NYgSveu-UEB4fADILz-20">
          <mxGeometry x="10" y="5" width="150" height="40" as="geometry" />
        </mxCell>
        <mxCell id="S0NYgSveu-UEB4fADILz-21" value="" style="group" vertex="1" connectable="0" parent="1">
          <mxGeometry x="960" y="293" width="190" height="50" as="geometry" />
        </mxCell>
        <mxCell id="S0NYgSveu-UEB4fADILz-22" value="" style="html=1;dashed=0;whiteSpace=wrap;shape=partialRectangle;right=0;strokeWidth=3;" vertex="1" parent="S0NYgSveu-UEB4fADILz-21">
          <mxGeometry width="190" height="50" as="geometry" />
        </mxCell>
        <mxCell id="S0NYgSveu-UEB4fADILz-23" value="&lt;font style=&quot;font-size: 18px;&quot;&gt;D2 – Vehicle Data&lt;/font&gt;" style="text;html=1;align=center;verticalAlign=middle;resizable=0;points=[];autosize=1;strokeColor=none;fillColor=none;container=1;" vertex="1" parent="S0NYgSveu-UEB4fADILz-21">
          <mxGeometry y="5" width="170" height="40" as="geometry" />
        </mxCell>
        <mxCell id="S0NYgSveu-UEB4fADILz-24" value="" style="group;strokeWidth=3;" vertex="1" connectable="0" parent="1">
          <mxGeometry x="249" y="697" width="190" height="50" as="geometry" />
        </mxCell>
        <mxCell id="S0NYgSveu-UEB4fADILz-25" value="" style="html=1;dashed=0;whiteSpace=wrap;shape=partialRectangle;right=0;strokeWidth=3;" vertex="1" parent="S0NYgSveu-UEB4fADILz-24">
          <mxGeometry width="190" height="50" as="geometry" />
        </mxCell>
        <mxCell id="S0NYgSveu-UEB4fADILz-26" value="&lt;font style=&quot;font-size: 18px;&quot;&gt;D3 – Booking Data&lt;/font&gt;" style="text;html=1;align=center;verticalAlign=middle;resizable=0;points=[];autosize=1;strokeColor=none;fillColor=none;container=1;" vertex="1" parent="S0NYgSveu-UEB4fADILz-24">
          <mxGeometry y="5" width="170" height="40" as="geometry" />
        </mxCell>
        <mxCell id="S0NYgSveu-UEB4fADILz-27" value="" style="group" vertex="1" connectable="0" parent="1">
          <mxGeometry x="442" y="293" width="190" height="50" as="geometry" />
        </mxCell>
        <mxCell id="S0NYgSveu-UEB4fADILz-28" value="" style="html=1;dashed=0;whiteSpace=wrap;shape=partialRectangle;right=0;strokeWidth=3;" vertex="1" parent="S0NYgSveu-UEB4fADILz-27">
          <mxGeometry width="190" height="50" as="geometry" />
        </mxCell>
        <mxCell id="S0NYgSveu-UEB4fADILz-29" value="&lt;font style=&quot;font-size: 18px;&quot;&gt;D4 – Payment Records&lt;/font&gt;" style="text;html=1;align=center;verticalAlign=middle;resizable=0;points=[];autosize=1;strokeColor=none;fillColor=none;container=1;" vertex="1" parent="S0NYgSveu-UEB4fADILz-27">
          <mxGeometry x="-7" y="5" width="210" height="40" as="geometry" />
        </mxCell>
        <mxCell id="tX5nesSdGELkdMT0WbA1-5" value="" style="group" vertex="1" connectable="0" parent="1">
          <mxGeometry x="630" y="490" width="190" height="110" as="geometry" />
        </mxCell>
        <mxCell id="tX5nesSdGELkdMT0WbA1-6" value="" style="rounded=0;whiteSpace=wrap;html=3;strokeColor=light-dark(#000000,#FFFFFF);strokeWidth=3;" vertex="1" parent="tX5nesSdGELkdMT0WbA1-5">
          <mxGeometry width="190" height="110" as="geometry" />
        </mxCell>
        <mxCell id="tX5nesSdGELkdMT0WbA1-7" value="&lt;span style=&quot;font-size: 18px;&quot;&gt;User&lt;/span&gt;" style="text;html=1;align=center;verticalAlign=middle;resizable=0;points=[];autosize=1;strokeColor=none;fillColor=none;" vertex="1" parent="tX5nesSdGELkdMT0WbA1-5">
          <mxGeometry x="65" y="36" width="60" height="40" as="geometry" />
        </mxCell>
        <mxCell id="tX5nesSdGELkdMT0WbA1-9" value="" style="group;strokeWidth=3;" vertex="1" connectable="0" parent="1">
          <mxGeometry x="443" y="-150" width="190" height="110" as="geometry" />
        </mxCell>
        <mxCell id="tX5nesSdGELkdMT0WbA1-10" value="" style="rounded=0;whiteSpace=wrap;html=3;strokeColor=light-dark(#000000,#FFFFFF);strokeWidth=3;" vertex="1" parent="tX5nesSdGELkdMT0WbA1-9">
          <mxGeometry width="190" height="110" as="geometry" />
        </mxCell>
        <mxCell id="tX5nesSdGELkdMT0WbA1-11" value="&lt;span style=&quot;font-size: 18px;&quot;&gt;Khalti Payment&amp;nbsp;&lt;/span&gt;&lt;div&gt;&lt;span style=&quot;font-size: 18px;&quot;&gt;Gateway&lt;/span&gt;&lt;/div&gt;" style="text;html=1;align=center;verticalAlign=middle;resizable=0;points=[];autosize=1;strokeColor=none;fillColor=none;" vertex="1" parent="tX5nesSdGELkdMT0WbA1-9">
          <mxGeometry x="20" y="26" width="150" height="60" as="geometry" />
        </mxCell>
        <mxCell id="tX5nesSdGELkdMT0WbA1-2" value="" style="group" vertex="1" connectable="0" parent="1">
          <mxGeometry x="940" y="-141" width="190" height="110" as="geometry" />
        </mxCell>
        <mxCell id="tX5nesSdGELkdMT0WbA1-3" value="" style="rounded=0;whiteSpace=wrap;html=3;strokeColor=light-dark(#000000,#FFFFFF);strokeWidth=3;" vertex="1" parent="tX5nesSdGELkdMT0WbA1-2">
          <mxGeometry width="190" height="110" as="geometry" />
        </mxCell>
        <mxCell id="tX5nesSdGELkdMT0WbA1-4" value="&lt;div&gt;&lt;span style=&quot;font-size: 18px;&quot;&gt;Vehicle Owner(s)&lt;/span&gt;&lt;/div&gt;" style="text;html=1;align=center;verticalAlign=middle;resizable=0;points=[];autosize=1;strokeColor=none;fillColor=none;" vertex="1" parent="tX5nesSdGELkdMT0WbA1-2">
          <mxGeometry x="15" y="36" width="160" height="40" as="geometry" />
        </mxCell>
        <mxCell id="tX5nesSdGELkdMT0WbA1-12" value="" style="group" vertex="1" connectable="0" parent="1">
          <mxGeometry x="673" y="-307" width="190" height="110" as="geometry" />
        </mxCell>
        <mxCell id="tX5nesSdGELkdMT0WbA1-1" value="" style="rounded=0;whiteSpace=wrap;html=3;strokeColor=light-dark(#000000,#FFFFFF);strokeWidth=3;" vertex="1" parent="tX5nesSdGELkdMT0WbA1-12">
          <mxGeometry width="190" height="110" as="geometry" />
        </mxCell>
        <mxCell id="tX5nesSdGELkdMT0WbA1-8" value="&lt;div&gt;&lt;span style=&quot;font-size: 18px;&quot;&gt;Admin&lt;/span&gt;&lt;/div&gt;" style="text;html=1;align=center;verticalAlign=middle;resizable=0;points=[];autosize=1;strokeColor=none;fillColor=none;" vertex="1" parent="tX5nesSdGELkdMT0WbA1-12">
          <mxGeometry x="52" y="34" width="70" height="40" as="geometry" />
        </mxCell>
        <mxCell id="tX5nesSdGELkdMT0WbA1-13" style="edgeStyle=orthogonalEdgeStyle;rounded=0;orthogonalLoop=1;jettySize=auto;html=1;exitX=1;exitY=0.25;exitDx=0;exitDy=0;entryX=-0.1;entryY=0.9;entryDx=0;entryDy=0;entryPerimeter=0;strokeWidth=3;" edge="1" parent="1" source="tX5nesSdGELkdMT0WbA1-6" target="CzCq_uoydx_rgcWmHXnd-4">
          <mxGeometry relative="1" as="geometry" />
        </mxCell>
        <mxCell id="JS9Qqwndmr8Ry-a1bTts-1" value="&lt;div&gt;&lt;font face=&quot;Times New Roman&quot; style=&quot;font-size: 15px;&quot;&gt;User Registration Data/&lt;/font&gt;&lt;/div&gt;&lt;div&gt;&lt;font face=&quot;Times New Roman&quot; style=&quot;font-size: 15px;&quot;&gt;&lt;span style=&quot;background-color: transparent; color: light-dark(rgb(0, 0, 0), rgb(255, 255, 255));&quot;&gt;Login Data&lt;/span&gt;&lt;/font&gt;&lt;/div&gt;" style="text;html=1;align=center;verticalAlign=middle;resizable=0;points=[];autosize=1;strokeColor=none;fillColor=none;strokeWidth=1;" vertex="1" parent="1">
          <mxGeometry x="822" y="469" width="170" height="50" as="geometry" />
        </mxCell>
        <mxCell id="JS9Qqwndmr8Ry-a1bTts-2" style="edgeStyle=orthogonalEdgeStyle;rounded=0;orthogonalLoop=1;jettySize=auto;html=1;exitX=0.25;exitY=1;exitDx=0;exitDy=0;entryX=0.352;entryY=-0.08;entryDx=0;entryDy=0;entryPerimeter=0;strokeWidth=3;" edge="1" parent="1" source="CzCq_uoydx_rgcWmHXnd-2" target="S0NYgSveu-UEB4fADILz-18">
          <mxGeometry relative="1" as="geometry" />
        </mxCell>
        <mxCell id="JS9Qqwndmr8Ry-a1bTts-3" value="&lt;font face=&quot;Times New Roman&quot;&gt;&lt;span style=&quot;font-size: 15px;&quot;&gt;User Profile Data/&lt;/span&gt;&lt;/font&gt;&lt;div&gt;&lt;font face=&quot;Times New Roman&quot;&gt;&lt;span style=&quot;font-size: 15px;&quot;&gt;Updated User info&lt;/span&gt;&lt;/font&gt;&lt;/div&gt;" style="text;html=1;align=center;verticalAlign=middle;resizable=0;points=[];autosize=1;strokeColor=none;fillColor=none;strokeWidth=1;" vertex="1" parent="1">
          <mxGeometry x="925" y="659" width="130" height="50" as="geometry" />
        </mxCell>
        <mxCell id="JS9Qqwndmr8Ry-a1bTts-4" style="edgeStyle=orthogonalEdgeStyle;rounded=0;orthogonalLoop=1;jettySize=auto;html=1;exitX=0.75;exitY=0;exitDx=0;exitDy=0;entryX=0.673;entryY=1.025;entryDx=0;entryDy=0;entryPerimeter=0;strokeWidth=3;" edge="1" parent="1" source="S0NYgSveu-UEB4fADILz-16" target="CzCq_uoydx_rgcWmHXnd-2">
          <mxGeometry relative="1" as="geometry" />
        </mxCell>
        <mxCell id="JS9Qqwndmr8Ry-a1bTts-5" value="&lt;font face=&quot;Times New Roman&quot;&gt;&lt;span style=&quot;font-size: 15px;&quot;&gt;User Details&lt;/span&gt;&lt;/font&gt;" style="text;html=1;align=center;verticalAlign=middle;resizable=0;points=[];autosize=1;strokeColor=none;fillColor=none;strokeWidth=1;" vertex="1" parent="1">
          <mxGeometry x="1123" y="669" width="100" height="30" as="geometry" />
        </mxCell>
        <mxCell id="wSjBENbRnAiZIrcmz-zM-1" style="edgeStyle=orthogonalEdgeStyle;rounded=0;orthogonalLoop=1;jettySize=auto;html=1;exitX=0.25;exitY=1;exitDx=0;exitDy=0;entryX=0.143;entryY=-0.005;entryDx=0;entryDy=0;entryPerimeter=0;strokeWidth=3;" edge="1" parent="1" source="tX5nesSdGELkdMT0WbA1-3" target="S0NYgSveu-UEB4fADILz-2">
          <mxGeometry relative="1" as="geometry" />
        </mxCell>
        <mxCell id="wSjBENbRnAiZIrcmz-zM-2" value="&lt;div&gt;&lt;font face=&quot;Times New Roman&quot; style=&quot;font-size: 15px;&quot;&gt;Vehicle Registration Data/&lt;/font&gt;&lt;/div&gt;&lt;div&gt;&lt;font face=&quot;Times New Roman&quot; style=&quot;font-size: 15px;&quot;&gt;&lt;span style=&quot;background-color: transparent; color: light-dark(rgb(0, 0, 0), rgb(255, 255, 255));&quot;&gt;vehicle Update Infromation&lt;/span&gt;&lt;/font&gt;&lt;/div&gt;" style="text;html=1;align=center;verticalAlign=middle;resizable=0;points=[];autosize=1;strokeColor=none;fillColor=none;strokeWidth=1;" vertex="1" parent="1">
          <mxGeometry x="800" y="-17" width="190" height="50" as="geometry" />
        </mxCell>
        <mxCell id="wSjBENbRnAiZIrcmz-zM-3" style="edgeStyle=orthogonalEdgeStyle;rounded=0;orthogonalLoop=1;jettySize=auto;html=1;exitX=0.25;exitY=1;exitDx=0;exitDy=0;entryX=0.25;entryY=0;entryDx=0;entryDy=0;strokeWidth=3;" edge="1" parent="1" source="S0NYgSveu-UEB4fADILz-2" target="S0NYgSveu-UEB4fADILz-22">
          <mxGeometry relative="1" as="geometry">
            <mxPoint x="1007.2" y="283" as="targetPoint" />
          </mxGeometry>
        </mxCell>
        <mxCell id="wSjBENbRnAiZIrcmz-zM-4" value="&lt;font face=&quot;Times New Roman&quot;&gt;&lt;span style=&quot;font-size: 15px;&quot;&gt;New/ Updated Vehicle&amp;nbsp;&lt;/span&gt;&lt;/font&gt;&lt;div&gt;&lt;font face=&quot;Times New Roman&quot;&gt;&lt;span style=&quot;font-size: 15px;&quot;&gt;Info&lt;/span&gt;&lt;/font&gt;&lt;/div&gt;" style="text;html=1;align=center;verticalAlign=middle;resizable=0;points=[];autosize=1;strokeColor=none;fillColor=none;strokeWidth=1;" vertex="1" parent="1">
          <mxGeometry x="857" y="203" width="160" height="50" as="geometry" />
        </mxCell>
        <mxCell id="wSjBENbRnAiZIrcmz-zM-5" style="edgeStyle=orthogonalEdgeStyle;rounded=0;orthogonalLoop=1;jettySize=auto;html=1;exitX=0;exitY=0.25;exitDx=0;exitDy=0;entryX=1;entryY=0.315;entryDx=0;entryDy=0;entryPerimeter=0;strokeWidth=3;" edge="1" parent="1" source="tX5nesSdGELkdMT0WbA1-6" target="S0NYgSveu-UEB4fADILz-7">
          <mxGeometry relative="1" as="geometry" />
        </mxCell>
        <mxCell id="wSjBENbRnAiZIrcmz-zM-6" value="&lt;font face=&quot;Times New Roman&quot;&gt;&lt;span style=&quot;font-size: 15px;&quot;&gt;Booking Request Data&lt;/span&gt;&lt;/font&gt;" style="text;html=1;align=center;verticalAlign=middle;resizable=0;points=[];autosize=1;strokeColor=none;fillColor=none;strokeWidth=1;" vertex="1" parent="1">
          <mxGeometry x="450" y="483" width="160" height="30" as="geometry" />
        </mxCell>
        <mxCell id="wSjBENbRnAiZIrcmz-zM-7" style="edgeStyle=orthogonalEdgeStyle;rounded=0;orthogonalLoop=1;jettySize=auto;html=1;exitX=0.25;exitY=1;exitDx=0;exitDy=0;strokeWidth=3;entryX=0.32;entryY=0.038;entryDx=0;entryDy=0;entryPerimeter=0;" edge="1" parent="1">
          <mxGeometry relative="1" as="geometry">
            <mxPoint x="328.4999999999998" y="593" as="sourcePoint" />
            <mxPoint x="307.79999999999995" y="698.8999999999999" as="targetPoint" />
          </mxGeometry>
        </mxCell>
        <mxCell id="wSjBENbRnAiZIrcmz-zM-8" value="&lt;font face=&quot;Times New Roman&quot;&gt;&lt;span style=&quot;font-size: 15px;&quot;&gt;Booking Record&lt;/span&gt;&lt;/font&gt;" style="text;html=1;align=center;verticalAlign=middle;resizable=0;points=[];autosize=1;strokeColor=none;fillColor=none;strokeWidth=1;" vertex="1" parent="1">
          <mxGeometry x="192" y="634" width="120" height="30" as="geometry" />
        </mxCell>
        <mxCell id="wSjBENbRnAiZIrcmz-zM-9" style="edgeStyle=orthogonalEdgeStyle;rounded=0;orthogonalLoop=1;jettySize=auto;html=1;exitX=1;exitY=0.75;exitDx=0;exitDy=0;entryX=-0.006;entryY=0.685;entryDx=0;entryDy=0;entryPerimeter=0;strokeWidth=3;" edge="1" parent="1" source="S0NYgSveu-UEB4fADILz-7" target="tX5nesSdGELkdMT0WbA1-6">
          <mxGeometry relative="1" as="geometry" />
        </mxCell>
        <mxCell id="wSjBENbRnAiZIrcmz-zM-10" value="&lt;font face=&quot;Times New Roman&quot;&gt;&lt;span style=&quot;font-size: 15px;&quot;&gt;Booking Confirmation/&lt;/span&gt;&lt;/font&gt;&lt;div&gt;&lt;font face=&quot;Times New Roman&quot;&gt;&lt;span style=&quot;font-size: 15px;&quot;&gt;Invoice&lt;/span&gt;&lt;/font&gt;&lt;/div&gt;" style="text;html=1;align=center;verticalAlign=middle;resizable=0;points=[];autosize=1;strokeColor=none;fillColor=none;strokeWidth=1;" vertex="1" parent="1">
          <mxGeometry x="452" y="562" width="160" height="50" as="geometry" />
        </mxCell>
        <mxCell id="wSjBENbRnAiZIrcmz-zM-11" style="edgeStyle=orthogonalEdgeStyle;rounded=0;orthogonalLoop=1;jettySize=auto;html=1;entryX=0.75;entryY=1;entryDx=0;entryDy=0;strokeWidth=3;" edge="1" parent="1">
          <mxGeometry relative="1" as="geometry">
            <mxPoint x="365" y="690" as="sourcePoint" />
            <mxPoint x="365.4999999999998" y="593" as="targetPoint" />
          </mxGeometry>
        </mxCell>
        <mxCell id="wSjBENbRnAiZIrcmz-zM-12" value="&lt;font face=&quot;Times New Roman&quot;&gt;&lt;span style=&quot;font-size: 15px;&quot;&gt;Booking Data&lt;/span&gt;&lt;/font&gt;" style="text;html=1;align=center;verticalAlign=middle;resizable=0;points=[];autosize=1;strokeColor=none;fillColor=none;strokeWidth=1;" vertex="1" parent="1">
          <mxGeometry x="359" y="643" width="110" height="30" as="geometry" />
        </mxCell>
        <mxCell id="wSjBENbRnAiZIrcmz-zM-13" style="edgeStyle=orthogonalEdgeStyle;rounded=0;orthogonalLoop=1;jettySize=auto;html=1;exitX=0.25;exitY=0;exitDx=0;exitDy=0;entryX=0.192;entryY=0.998;entryDx=0;entryDy=0;entryPerimeter=0;strokeWidth=3;" edge="1" parent="1" source="S0NYgSveu-UEB4fADILz-12" target="tX5nesSdGELkdMT0WbA1-10">
          <mxGeometry relative="1" as="geometry" />
        </mxCell>
        <mxCell id="wSjBENbRnAiZIrcmz-zM-14" value="&lt;font face=&quot;Times New Roman&quot;&gt;&lt;span style=&quot;font-size: 15px;&quot;&gt;Payment Request Data&lt;/span&gt;&lt;/font&gt;" style="text;html=1;align=center;verticalAlign=middle;resizable=0;points=[];autosize=1;strokeColor=none;fillColor=none;strokeWidth=1;" vertex="1" parent="1">
          <mxGeometry x="323" y="13" width="160" height="30" as="geometry" />
        </mxCell>
        <mxCell id="wSjBENbRnAiZIrcmz-zM-15" style="edgeStyle=orthogonalEdgeStyle;rounded=0;orthogonalLoop=1;jettySize=auto;html=1;exitX=0.75;exitY=1;exitDx=0;exitDy=0;strokeWidth=3;" edge="1" parent="1" source="tX5nesSdGELkdMT0WbA1-10">
          <mxGeometry relative="1" as="geometry">
            <mxPoint x="585" y="84" as="targetPoint" />
          </mxGeometry>
        </mxCell>
        <mxCell id="wSjBENbRnAiZIrcmz-zM-16" value="&lt;font face=&quot;Times New Roman&quot;&gt;&lt;span style=&quot;font-size: 15px;&quot;&gt;Payment Confirmation Data&lt;/span&gt;&lt;/font&gt;" style="text;html=1;align=center;verticalAlign=middle;resizable=0;points=[];autosize=1;strokeColor=none;fillColor=none;strokeWidth=1;" vertex="1" parent="1">
          <mxGeometry x="579" y="13" width="190" height="30" as="geometry" />
        </mxCell>
        <mxCell id="wSjBENbRnAiZIrcmz-zM-17" style="edgeStyle=orthogonalEdgeStyle;rounded=0;orthogonalLoop=1;jettySize=auto;html=1;exitX=0.25;exitY=1;exitDx=0;exitDy=0;entryX=0.196;entryY=-0.02;entryDx=0;entryDy=0;entryPerimeter=0;strokeWidth=3;" edge="1" parent="1">
          <mxGeometry relative="1" as="geometry">
            <mxPoint x="502.5" y="194" as="sourcePoint" />
            <mxPoint x="502.24" y="292.0000000000002" as="targetPoint" />
          </mxGeometry>
        </mxCell>
        <mxCell id="wSjBENbRnAiZIrcmz-zM-18" value="&lt;font face=&quot;Times New Roman&quot;&gt;&lt;span style=&quot;font-size: 15px;&quot;&gt;Payment&amp;nbsp;&lt;/span&gt;&lt;/font&gt;&lt;div&gt;&lt;font face=&quot;Times New Roman&quot;&gt;&lt;span style=&quot;font-size: 15px;&quot;&gt;Transaction Record&lt;/span&gt;&lt;/font&gt;&lt;/div&gt;" style="text;html=1;align=center;verticalAlign=middle;resizable=0;points=[];autosize=1;strokeColor=none;fillColor=none;strokeWidth=1;" vertex="1" parent="1">
          <mxGeometry x="365" y="218" width="140" height="50" as="geometry" />
        </mxCell>
        <mxCell id="wSjBENbRnAiZIrcmz-zM-19" style="edgeStyle=orthogonalEdgeStyle;rounded=0;orthogonalLoop=1;jettySize=auto;html=1;exitX=0.75;exitY=0;exitDx=0;exitDy=0;entryX=0.804;entryY=1.025;entryDx=0;entryDy=0;entryPerimeter=0;strokeWidth=3;" edge="1" parent="1">
          <mxGeometry relative="1" as="geometry">
            <mxPoint x="544.5" y="293" as="sourcePoint" />
            <mxPoint x="544.76" y="196.75" as="targetPoint" />
          </mxGeometry>
        </mxCell>
        <mxCell id="wSjBENbRnAiZIrcmz-zM-20" value="&lt;font face=&quot;Times New Roman&quot;&gt;&lt;span style=&quot;font-size: 15px;&quot;&gt;Payment Records&lt;/span&gt;&lt;/font&gt;" style="text;html=1;align=center;verticalAlign=middle;resizable=0;points=[];autosize=1;strokeColor=none;fillColor=none;strokeWidth=1;" vertex="1" parent="1">
          <mxGeometry x="536" y="228" width="130" height="30" as="geometry" />
        </mxCell>
        <mxCell id="-xaVbBLuyxIPGjDOa8sy-1" style="edgeStyle=orthogonalEdgeStyle;rounded=0;orthogonalLoop=1;jettySize=auto;html=1;exitX=1;exitY=0.75;exitDx=0;exitDy=0;entryX=1;entryY=0.25;entryDx=0;entryDy=0;strokeWidth=3;" edge="1" parent="1" source="tX5nesSdGELkdMT0WbA1-1" target="S0NYgSveu-UEB4fADILz-2">
          <mxGeometry relative="1" as="geometry">
            <Array as="points">
              <mxPoint x="1260" y="-224" />
              <mxPoint x="1260" y="91" />
            </Array>
          </mxGeometry>
        </mxCell>
        <mxCell id="1XIgVCe82ghRL6gK6Jzj-1" value="&lt;font face=&quot;Times New Roman&quot; style=&quot;forced-color-adjust: none; color: rgb(0, 0, 0); font-size: 12px; font-style: normal; font-variant-ligatures: normal; font-variant-caps: normal; font-weight: 400; letter-spacing: normal; orphans: 2; text-align: center; text-indent: 0px; text-transform: none; widows: 2; word-spacing: 0px; -webkit-text-stroke-width: 0px; white-space: nowrap; background-color: rgb(255, 255, 255); text-decoration-thickness: initial; text-decoration-style: initial; text-decoration-color: initial;&quot;&gt;&lt;span style=&quot;forced-color-adjust: none; font-size: 15px;&quot;&gt;Administrative Commands/&lt;/span&gt;&lt;/font&gt;&lt;div style=&quot;forced-color-adjust: none; color: rgb(0, 0, 0); font-family: Helvetica; font-size: 12px; font-style: normal; font-variant-ligatures: normal; font-variant-caps: normal; font-weight: 400; letter-spacing: normal; orphans: 2; text-align: center; text-indent: 0px; text-transform: none; widows: 2; word-spacing: 0px; -webkit-text-stroke-width: 0px; white-space: nowrap; background-color: rgb(255, 255, 255); text-decoration-thickness: initial; text-decoration-style: initial; text-decoration-color: initial;&quot;&gt;&lt;font face=&quot;Times New Roman&quot; style=&quot;forced-color-adjust: none;&quot;&gt;&lt;span style=&quot;forced-color-adjust: none; font-size: 15px;&quot;&gt;Approval Data&lt;/span&gt;&lt;/font&gt;&lt;/div&gt;" style="text;whiteSpace=wrap;html=1;" vertex="1" parent="1">
          <mxGeometry x="930" y="-227" width="200" height="60" as="geometry" />
        </mxCell>
        <mxCell id="1XIgVCe82ghRL6gK6Jzj-2" style="edgeStyle=orthogonalEdgeStyle;rounded=0;orthogonalLoop=1;jettySize=auto;html=1;exitX=1;exitY=0.75;exitDx=0;exitDy=0;entryX=1;entryY=0.25;entryDx=0;entryDy=0;strokeWidth=3;" edge="1" parent="1" source="S0NYgSveu-UEB4fADILz-2" target="tX5nesSdGELkdMT0WbA1-1">
          <mxGeometry relative="1" as="geometry">
            <mxPoint x="1290" y="-157" as="targetPoint" />
            <Array as="points">
              <mxPoint x="1330" y="146" />
              <mxPoint x="1330" y="-279" />
            </Array>
          </mxGeometry>
        </mxCell>
        <mxCell id="1XIgVCe82ghRL6gK6Jzj-3" value="&lt;div style=&quot;text-align: center;&quot;&gt;&lt;font face=&quot;Times New Roman&quot;&gt;&lt;span style=&quot;font-size: 15px; text-wrap-mode: nowrap;&quot;&gt;System Reports/Status Information&lt;/span&gt;&lt;/font&gt;&lt;/div&gt;" style="text;whiteSpace=wrap;html=1;" vertex="1" parent="1">
          <mxGeometry x="990" y="-312" width="200" height="60" as="geometry" />
        </mxCell>
        <mxCell id="QIg4oOb2k0vcxIdVO4GF-1" style="edgeStyle=orthogonalEdgeStyle;rounded=0;orthogonalLoop=1;jettySize=auto;html=1;exitX=0.75;exitY=0;exitDx=0;exitDy=0;entryX=0.854;entryY=1.001;entryDx=0;entryDy=0;entryPerimeter=0;strokeWidth=3;" edge="1" parent="1" source="S0NYgSveu-UEB4fADILz-2" target="tX5nesSdGELkdMT0WbA1-3">
          <mxGeometry relative="1" as="geometry" />
        </mxCell>
        <mxCell id="QIg4oOb2k0vcxIdVO4GF-2" value="&lt;font face=&quot;Times New Roman&quot;&gt;&lt;span style=&quot;font-size: 15px;&quot;&gt;Listing Confirmation&lt;/span&gt;&lt;/font&gt;" style="text;html=1;align=center;verticalAlign=middle;resizable=0;points=[];autosize=1;strokeColor=none;fillColor=none;strokeWidth=1;" vertex="1" parent="1">
          <mxGeometry x="1098" y="13" width="150" height="30" as="geometry" />
        </mxCell>
        <mxCell id="QIg4oOb2k0vcxIdVO4GF-4" style="edgeStyle=orthogonalEdgeStyle;rounded=0;orthogonalLoop=1;jettySize=auto;html=1;exitX=0.75;exitY=0;exitDx=0;exitDy=0;entryX=0.75;entryY=1;entryDx=0;entryDy=0;strokeWidth=3;" edge="1" parent="1" source="S0NYgSveu-UEB4fADILz-22" target="S0NYgSveu-UEB4fADILz-2">
          <mxGeometry relative="1" as="geometry" />
        </mxCell>
        <mxCell id="QIg4oOb2k0vcxIdVO4GF-5" value="&lt;font face=&quot;Times New Roman&quot;&gt;&lt;span style=&quot;font-size: 15px;&quot;&gt;Vehicle Details&lt;/span&gt;&lt;/font&gt;" style="text;html=1;align=center;verticalAlign=middle;resizable=0;points=[];autosize=1;strokeColor=none;fillColor=none;strokeWidth=1;" vertex="1" parent="1">
          <mxGeometry x="1099" y="207" width="110" height="30" as="geometry" />
        </mxCell>
        <mxCell id="QIg4oOb2k0vcxIdVO4GF-6" style="edgeStyle=orthogonalEdgeStyle;rounded=0;orthogonalLoop=1;jettySize=auto;html=1;exitX=0.25;exitY=1;exitDx=0;exitDy=0;entryX=0.84;entryY=0.016;entryDx=0;entryDy=0;entryPerimeter=0;strokeWidth=3;" edge="1" parent="1" source="S0NYgSveu-UEB4fADILz-22" target="S0NYgSveu-UEB4fADILz-7">
          <mxGeometry relative="1" as="geometry" />
        </mxCell>
        <mxCell id="QIg4oOb2k0vcxIdVO4GF-7" value="&lt;font face=&quot;Times New Roman&quot;&gt;&lt;span style=&quot;font-size: 15px;&quot;&gt;Vehicle Details&lt;/span&gt;&lt;/font&gt;" style="text;html=1;align=center;verticalAlign=middle;resizable=0;points=[];autosize=1;strokeColor=none;fillColor=none;strokeWidth=1;" vertex="1" parent="1">
          <mxGeometry x="410" y="410" width="110" height="30" as="geometry" />
        </mxCell>
        <mxCell id="QIg4oOb2k0vcxIdVO4GF-8" style="edgeStyle=orthogonalEdgeStyle;rounded=0;orthogonalLoop=1;jettySize=auto;html=1;exitX=0.25;exitY=1;exitDx=0;exitDy=0;entryX=0;entryY=0.75;entryDx=0;entryDy=0;strokeWidth=3;" edge="1" parent="1" source="S0NYgSveu-UEB4fADILz-16" target="S0NYgSveu-UEB4fADILz-7">
          <mxGeometry relative="1" as="geometry">
            <Array as="points">
              <mxPoint x="1037" y="830" />
              <mxPoint x="190" y="830" />
              <mxPoint x="190" y="565" />
            </Array>
          </mxGeometry>
        </mxCell>
        <mxCell id="QIg4oOb2k0vcxIdVO4GF-9" value="&lt;font face=&quot;Times New Roman&quot;&gt;&lt;span style=&quot;font-size: 15px;&quot;&gt;User Details&lt;/span&gt;&lt;/font&gt;" style="text;html=1;align=center;verticalAlign=middle;resizable=0;points=[];autosize=1;strokeColor=none;fillColor=none;strokeWidth=1;" vertex="1" parent="1">
          <mxGeometry x="721" y="802" width="100" height="30" as="geometry" />
        </mxCell>
        <mxCell id="QIg4oOb2k0vcxIdVO4GF-10" style="edgeStyle=orthogonalEdgeStyle;rounded=0;orthogonalLoop=1;jettySize=auto;html=1;exitX=-0.006;exitY=0.813;exitDx=0;exitDy=0;entryX=0;entryY=0.5;entryDx=0;entryDy=0;strokeWidth=3;exitPerimeter=0;" edge="1" parent="1">
          <mxGeometry relative="1" as="geometry">
            <mxPoint x="430.6999999999998" y="116.52000000000021" as="sourcePoint" />
            <mxPoint x="249.99999999999977" y="538" as="targetPoint" />
            <Array as="points">
              <mxPoint x="433" y="117" />
              <mxPoint x="433" y="110" />
              <mxPoint x="220" y="110" />
              <mxPoint x="220" y="538" />
            </Array>
          </mxGeometry>
        </mxCell>
        <mxCell id="QIg4oOb2k0vcxIdVO4GF-11" value="&lt;font face=&quot;Times New Roman&quot;&gt;&lt;span style=&quot;font-size: 15px;&quot;&gt;Payment Confrimation&lt;/span&gt;&lt;/font&gt;" style="text;html=1;align=center;verticalAlign=middle;resizable=0;points=[];autosize=1;strokeColor=none;fillColor=none;strokeWidth=1;" vertex="1" parent="1">
          <mxGeometry x="10" y="313" width="160" height="30" as="geometry" />
        </mxCell>
        <mxCell id="QIg4oOb2k0vcxIdVO4GF-12" style="edgeStyle=orthogonalEdgeStyle;rounded=0;orthogonalLoop=1;jettySize=auto;html=1;exitX=0.25;exitY=0;exitDx=0;exitDy=0;entryX=0;entryY=0.75;entryDx=0;entryDy=0;strokeWidth=3;" edge="1" parent="1" source="S0NYgSveu-UEB4fADILz-7" target="S0NYgSveu-UEB4fADILz-12">
          <mxGeometry relative="1" as="geometry">
            <mxPoint x="340" y="180" as="targetPoint" />
          </mxGeometry>
        </mxCell>
      </root>
    </mxGraphModel>
  </diagram>
  <diagram id="YSuLXVbW30OubjGd27JZ" name="Level 1">
    <mxGraphModel dx="880" dy="516" grid="1" gridSize="10" guides="1" tooltips="1" connect="1" arrows="1" fold="1" page="0" pageScale="1" pageWidth="900" pageHeight="1600" math="0" shadow="0">
      <root>
        <mxCell id="0" />
        <mxCell id="1" parent="0" />
      </root>
    </mxGraphModel>
  </diagram>
</mxfile>
